<?xml version="1.0" encoding="utf-8"?>
<!-- Generator: Adobe Illustrator 27.5.0, SVG Export Plug-In . SVG Version: 6.00 Build 0)  -->
<svg version="1.1" xmlns="http://www.w3.org/2000/svg" xmlns:xlink="http://www.w3.org/1999/xlink" x="0px" y="0px"
	 viewBox="0 0 2500 2500" style="enable-background:new 0 0 2500 2500;" xml:space="preserve">
<g id="Background">
	<rect style="fill:#FFFFFF;" width="2500" height="2500"/>
</g>
<g id="Illustration">
	<g id="Driving_instruction_1_">
		<g>
			<path style="fill:#FFFFFF;" d="M1986.914,1212.279L501.39,983.258C398.9,966.969,329.417,893.302,341.089,813.302l10.361-71.02
				c36.649-251.205,332.036-431.501,658.392-401.864l639.292,62.384c25.807,2.518,104.171,34.798,128.601,43.404
				C2082.005,553.386,2153.86,1238.811,1986.914,1212.279z"/>
			<path d="M351.452,744.488c-0.106,0-0.213-0.006-0.321-0.024c-1.204-0.174-2.04-1.295-1.864-2.502
				c17.742-121.616,95.74-230.93,219.622-307.803c59.67-37.026,126.442-64.253,198.465-80.928
				c74.432-17.229,150.838-22.282,227.082-15.008l665.348,63.473c1.213,0.114,2.103,1.192,1.987,2.405
				c-0.114,1.211-1.161,2.131-2.405,1.987l-665.348-63.473c-150.495-14.353-300.643,19.489-422.802,95.294
				c-122.758,76.177-200.032,184.384-217.584,304.692C353.473,743.697,352.53,744.488,351.452,744.488z"/>
		</g>
		<g>
			<path d="M2039.89,1219.07c-15.8,0-33.353-1.439-53.322-4.613L714.526,1018.349c-21.943-3.383-39.466-17.916-46.869-38.877
				c-7.36-20.84-2.892-43.012,11.954-59.315l1.61-1.76c2.762-3.021,6.014-5.848,9.664-8.401
				c32.452-22.706,62.54-49.972,91.98-83.352c4.891-5.551,9.692-11.336,14.266-17.197c2.749-3.523,5.725-6.639,8.847-9.257
				c95.091-79.793,206.142-154.789,321.143-216.886c125.356-67.686,252.107-117.793,366.545-144.904
				c28.612-6.776,56.123-13.29,82.583-19.545c35.818-8.468,72.476-11.474,108.961-8.944c1.215,0.086,2.133,1.14,2.049,2.355
				c-0.086,1.215-1.153,2.14-2.355,2.047c-36.04-2.502-72.256,0.47-107.638,8.836c-26.46,6.255-53.971,12.767-82.583,19.543
				c-219.846,52.083-482.658,190.364-685.87,360.876c-2.883,2.422-5.645,5.313-8.205,8.593c-4.628,5.93-9.483,11.784-14.434,17.399
				c-29.675,33.648-60.017,61.142-92.76,84.051c-3.385,2.368-6.393,4.979-8.938,7.763l-1.601,1.752
				c-13.736,15.081-17.869,35.594-11.058,54.876c6.854,19.401,23.07,32.855,43.381,35.986l1272.052,196.11
				c69.431,11.036,109.174,0.806,147.498-17.947c1.099-0.539,2.416-0.082,2.952,1.013c0.534,1.095,0.082,2.416-1.013,2.952
				C2108.67,1209.824,2079.922,1219.07,2039.89,1219.07z"/>
			<g>
				<g>
					<path style="fill:#FFFFFF;" d="M1497.935,844.06l-5.939-5.084c-7.714-6.603-8.557-18.144-1.883-25.776l2.569-2.938
						c10.188-11.651,20.713-23.21,31.279-34.353l2.686-2.833c6.979-7.361,18.668-7.731,26.107-0.826l5.726,5.315
						c7.44,6.905,7.813,18.47,0.833,25.831l-2.686,2.833c-10.157,10.714-20.274,21.827-30.072,33.031l-2.569,2.938
						C1517.313,849.829,1505.649,850.664,1497.935,844.06z M1599.129,738.441l-5.201-5.819c-6.758-7.561-6.041-19.11,1.601-25.796
						l2.941-2.573c11.683-10.224,23.705-20.291,35.727-29.922l3.052-2.444c7.928-6.349,19.558-5.138,25.976,2.706l4.941,6.04
						c6.418,7.844,5.194,19.351-2.734,25.701l-3.052,2.445c-11.52,9.227-23.04,18.873-34.24,28.672l-2.94,2.573
						C1617.559,746.71,1605.887,746.002,1599.129,738.441z M1713.943,647.551l-4.301-6.5c-5.588-8.443-3.199-19.77,5.334-25.299
						l3.286-2.129c13.081-8.474,26.48-16.716,39.824-24.496l3.383-1.972c8.788-5.124,20.11-2.228,25.289,6.467l3.986,6.694
						c5.178,8.695,2.252,19.898-6.536,25.021l-3.383,1.972c-12.739,7.427-25.535,15.297-38.029,23.391l-3.284,2.127
						C1730.978,658.357,1719.531,655.994,1713.943,647.551z M1841.036,574.489l-3.217-7.087c-4.179-9.207-0.024-20.023,9.282-24.157
						l3.582-1.591c14.4-6.4,29.003-12.435,43.406-17.938l3.662-1.399c9.515-3.636,20.208,1.049,23.883,10.463l2.829,7.249
						c3.675,9.415-1.06,19.994-10.575,23.63l-3.664,1.4c-13.658,5.218-27.517,10.946-41.191,17.021l-3.581,1.591
						C1856.148,587.807,1845.216,583.696,1841.036,574.489z"/>
					<path d="M1510.005,850.711c-4.792,0-9.606-1.635-13.506-4.975l-5.938-5.083c-4.187-3.583-6.708-8.567-7.104-14.034
						c-0.394-5.456,1.381-10.737,4.995-14.872l2.568-2.937c10.231-11.698,20.776-23.279,31.34-34.421l2.687-2.831
						c7.798-8.22,20.896-8.636,29.209-0.927l5.725,5.318c4.034,3.745,6.352,8.821,6.529,14.297
						c0.174,5.471-1.814,10.679-5.596,14.669l-2.685,2.831c-10.125,10.681-20.222,21.771-30.013,32.965l-2.568,2.939
						C1521.567,848.317,1515.801,850.711,1510.005,850.711z M1540.124,769.515c-4.344,0-8.675,1.704-11.875,5.079l-2.687,2.833
						c-10.524,11.099-21.028,22.635-31.219,34.288l-2.568,2.937c-2.833,3.241-4.223,7.378-3.915,11.648
						c0.31,4.281,2.288,8.188,5.572,11l5.938,5.083c6.785,5.809,17.087,5.079,22.956-1.638l2.568-2.939
						c9.83-11.239,19.968-22.374,30.134-33.096l2.685-2.831c2.965-3.129,4.523-7.21,4.387-11.493
						c-0.138-4.286-1.957-8.265-5.122-11.202l-5.725-5.318C1548.118,770.956,1544.116,769.515,1540.124,769.515z M1612.976,746.804
						c-5.719,0-11.413-2.329-15.492-6.891c0-0.002-0.002-0.002-0.002-0.002l-5.199-5.82c-3.661-4.094-5.492-9.358-5.156-14.818
						c0.334-5.471,2.803-10.48,6.951-14.109l2.941-2.573c11.668-10.211,23.71-20.299,35.798-29.98l3.053-2.446
						c8.852-7.093,21.89-5.736,29.063,3.032l4.941,6.038c3.475,4.249,5.074,9.582,4.501,15.02
						c-0.573,5.453-3.26,10.353-7.563,13.801l-3.051,2.444c-11.515,9.224-23.012,18.852-34.167,28.612l-2.941,2.573
						C1622.731,745.117,1617.844,746.804,1612.976,746.804z M1600.772,736.97c5.949,6.649,16.253,7.274,22.976,1.392l2.941-2.573
						c11.202-9.802,22.747-19.47,34.314-28.733l3.051-2.443c3.377-2.704,5.484-6.548,5.932-10.821
						c0.448-4.255-0.804-8.433-3.527-11.762l-4.941-6.038c-5.65-6.901-15.915-7.97-22.889-2.383l-3.053,2.446
						c-12.036,9.642-24.031,19.688-35.652,29.86l-2.941,2.573c-3.254,2.846-5.189,6.772-5.451,11.056
						c-0.263,4.275,1.172,8.399,4.042,11.609L1600.772,736.97z M1729.429,658.013c-6.744,0.002-13.361-3.256-17.326-9.246
						l-4.301-6.499c-3.023-4.566-4.072-10.026-2.956-15.374c1.12-5.376,4.292-9.989,8.929-12.993l3.286-2.129
						c13.12-8.5,26.548-16.759,39.914-24.553l3.383-1.972c9.817-5.725,22.51-2.471,28.296,7.244l3.986,6.695
						c2.799,4.699,3.588,10.198,2.222,15.484c-1.375,5.322-4.764,9.787-9.541,12.573l-3.383,1.971
						c-12.687,7.395-25.453,15.247-37.942,23.338l-3.284,2.127C1737.229,656.936,1733.308,658.013,1729.429,658.013z
						 M1770.821,586.835c-2.808,0-5.65,0.717-8.24,2.228l-3.383,1.972c-13.307,7.757-26.677,15.981-39.737,24.441l-3.286,2.129
						c-3.641,2.359-6.132,5.979-7.011,10.194c-0.873,4.184-0.05,8.459,2.318,12.036l4.301,6.499
						c4.913,7.425,15.014,9.506,22.527,4.645l3.284-2.127c12.547-8.13,25.374-16.018,38.119-23.448l3.383-1.971
						c3.753-2.189,6.414-5.693,7.492-9.864c1.071-4.137,0.453-8.442-1.741-12.122l-3.986-6.695
						C1781.834,589.666,1776.397,586.835,1770.821,586.835z M1857.921,587.481c-7.897,0-15.451-4.501-18.892-12.081l-3.217-7.087
						c-2.258-4.969-2.433-10.513-0.493-15.613c1.954-5.145,5.822-9.22,10.888-11.472l3.581-1.592
						c14.447-6.421,29.088-12.471,43.516-17.983l3.661-1.398c10.627-4.06,22.618,1.198,26.725,11.724l2.831,7.246
						c1.982,5.081,1.857,10.625-0.351,15.613c-2.23,5.038-6.311,8.901-11.491,10.883l-3.665,1.4
						c-13.59,5.191-27.412,10.901-41.084,16.975l-3.579,1.592C1863.611,586.904,1860.743,587.481,1857.921,587.481z
						 M1843.045,573.577c3.676,8.091,13.327,11.722,21.513,8.078l3.579-1.592c13.743-6.104,27.638-11.846,41.301-17.065l3.663-1.401
						c4.075-1.556,7.283-4.592,9.035-8.546c1.728-3.904,1.825-8.244,0.274-12.221l-2.831-7.246
						c-3.23-8.28-12.674-12.411-21.039-9.205l-3.663,1.398c-14.352,5.484-28.92,11.504-43.297,17.893l-3.581,1.592
						c-3.982,1.769-7.022,4.969-8.556,9.007c-1.517,3.99-1.379,8.332,0.386,12.221L1843.045,573.577z"/>
				</g>
				<g>
					<path style="fill:#FFFFFF;" d="M1422.717,943.625l-6.441-4.445c-8.367-5.773-10.419-17.164-4.584-25.442l2.246-3.187
						c4.628-6.566,9.432-13.242,14.279-19.844l2.307-3.142c5.995-8.166,17.545-9.977,25.798-4.046l6.354,4.566
						c8.253,5.931,10.084,17.359,4.089,25.525l-2.308,3.144c-4.679,6.372-9.315,12.816-13.779,19.148l-2.246,3.187
						C1442.597,947.368,1431.084,949.398,1422.717,943.625z"/>
					<path d="M1433.253,949.109c-4.079,0-8.197-1.189-11.788-3.667l-6.443-4.445c-4.544-3.135-7.578-7.839-8.541-13.243
						c-0.959-5.378,0.252-10.808,3.409-15.288l2.245-3.187c4.605-6.531,9.416-13.219,14.305-19.877l2.308-3.144
						c6.697-9.125,19.646-11.155,28.862-4.534l6.354,4.57c4.482,3.219,7.423,7.977,8.283,13.396
						c0.858,5.397-0.459,10.806-3.704,15.225l-2.308,3.144c-4.639,6.32-9.267,12.752-13.754,19.114l-2.245,3.187
						C1446.222,946.056,1439.786,949.109,1433.253,949.109z M1423.972,941.809c7.356,5.083,17.524,3.292,22.657-3.99l2.245-3.187
						c4.503-6.387,9.147-12.84,13.805-19.183l2.308-3.144c2.54-3.463,3.573-7.697,2.902-11.922
						c-0.674-4.247-2.984-7.977-6.501-10.504l-6.356-4.57c-7.263-5.217-17.457-3.62-22.73,3.562l-2.308,3.144
						c-4.87,6.637-9.666,13.301-14.253,19.808l-2.245,3.187c-2.474,3.508-3.422,7.761-2.672,11.972
						c0.756,4.234,3.137,7.923,6.705,10.383L1423.972,941.809z"/>
				</g>
			</g>
		</g>
		<g>
			<g>
				<path style="fill:#FFFFFF;" d="M562.956,1131.712C659.729,990.83,813.05,908.956,977.593,929.769l780.779,97.698
					c155.751,19.7,287.257,146.662,334.911,323.338C2093.283,1350.805,506.796,1213.47,562.956,1131.712z"/>
				<path d="M2093.283,1353.01c-0.063,0-0.127-0.002-0.19-0.009c-3.732-0.323-377.377-32.78-750.972-74.885
					c-219.441-24.729-395.931-47.901-524.569-68.869c-163.785-26.697-247.942-49.28-257.274-69.039
					c-1.558-3.295-1.26-6.665,0.858-9.748c101.15-147.25,256.955-223.091,416.732-202.882l780.776,97.698
					c156.681,19.819,288.87,147.369,336.769,324.951c0.188,0.696,0.024,1.439-0.439,1.991
					C2094.554,1352.724,2093.934,1353.01,2093.283,1353.01z M562.956,1131.712l1.819,1.25c-1.228,1.788-1.39,3.493-0.506,5.363
					c10.855,22.98,154.701,65.124,778.349,135.408c355.299,40.043,710.64,71.357,747.703,74.598
					c-48.112-174.253-178.228-299.195-332.225-318.674L977.32,931.958c-158.129-20.015-312.352,55.141-412.546,201.004
					L562.956,1131.712z"/>
			</g>
		</g>
		<path style="fill:#FFFFFF;" d="M1959.372,1189.012c-76.901-46.677-163.218-79.203-243.167-88.742L866.307,998.87
			c-174.142-20.777-314.558,10.256-415.979,79.547c-2.017,2.744-4.033,5.534-6.046,8.43
			c-117.015,168.366-100.327,363.644-96.548,399.769c28.703,274.295,269.506,511.03,551.189,617.565l23.208,11.581
			c49.596,17.084,100.245,30.006,151.027,38.19c390.286,62.899,827.672-145.839,993.901-547.943
			c20.456-49.48,38.177-101.28,52.934-154.371C2112.433,1346.429,2055.184,1247.167,1959.372,1189.012z"/>
		<path d="M1959.37,1191.218c-0.39,0-0.784-0.103-1.142-0.321c-78.718-47.778-164.764-79.187-242.283-88.435l-849.898-101.4
			c-166.136-19.832-309.333,7.483-414.164,78.966c-1.933,2.631-3.863,5.305-5.79,8.078c-0.696,1.002-2.073,1.25-3.07,0.554
			c-1.002-0.696-1.25-2.071-0.554-3.07c2.023-2.913,4.053-5.719,6.081-8.479c0.147-0.2,0.328-0.373,0.532-0.513
			c105.755-72.251,250.126-99.886,417.486-79.918l849.898,101.4c78.134,9.323,164.807,40.946,244.05,89.047
			c1.043,0.631,1.375,1.989,0.741,3.029C1960.844,1190.841,1960.116,1191.218,1959.37,1191.218z"/>
		<path d="M1065.434,2132.917c-0.205,0-0.414-0.028-0.623-0.091c-1.168-0.343-1.838-1.569-1.493-2.739l54.258-184.617
			c31.11-101.137,62.978-242.738-18.996-304.77c-0.972-0.737-1.164-2.12-0.429-3.092c0.737-0.972,2.116-1.161,3.092-0.429
			c84.18,63.706,52.049,207.183,20.558,309.562l-54.251,184.591C1067.268,2132.295,1066.389,2132.917,1065.434,2132.917z"/>
		<g>
			<ellipse style="fill:#FFFFFF;" cx="1336.758" cy="1238.701" rx="94.143" ry="93.147"/>
			<path d="M1336.759,1334.055c-53.126,0-96.349-42.775-96.349-95.354s43.223-95.354,96.349-95.354
				c53.126,0,96.35,42.775,96.35,95.354S1389.885,1334.055,1336.759,1334.055z M1336.759,1147.76
				c-50.694,0-91.937,40.797-91.937,90.941c0,50.144,41.243,90.941,91.937,90.941c50.694,0,91.937-40.797,91.937-90.941
				C1428.696,1188.557,1387.452,1147.76,1336.759,1147.76z"/>
		</g>
		<g>
			<g>
				<path style="fill:#FFFFFF;" d="M1415.232,533.389l-49.067-3.584l6.883-92.24c1-13.406,12.795-23.471,26.344-22.482
					c13.549,0.99,23.722,12.66,22.722,26.066L1415.232,533.389z"/>
				<path d="M1415.235,535.596c-0.054,0-0.108-0.002-0.164-0.006l-49.067-3.585c-0.584-0.043-1.127-0.315-1.508-0.758
					c-0.384-0.444-0.573-1.021-0.53-1.605l6.882-92.239c1.086-14.596,13.952-25.622,28.707-24.518
					c7.188,0.524,13.728,3.803,18.41,9.231c4.62,5.357,6.874,12.174,6.35,19.198l-6.882,92.241
					C1417.347,534.713,1416.379,535.596,1415.235,535.596z M1368.53,527.764l44.667,3.264l6.718-90.043
					c0.435-5.848-1.444-11.526-5.292-15.988c-3.913-4.536-9.377-7.274-15.391-7.714c-12.323-0.898-23.079,8.274-23.984,20.446
					L1368.53,527.764z"/>
			</g>
			<g>
				<g>
					<path style="fill:#FFFFFF;" d="M1536.253,604.765l-318.203-41.176c-19.888-2.574-35.267-18.528-36.923-38.306l-2.031-24.252
						c-2.234-26.671,20.899-48.62,47.738-45.295l331.603,41.079c28.606,3.544,45.465,33.594,33.374,59.488l-11.369,24.349
						C1572.628,597.388,1554.728,607.155,1536.253,604.765z"/>
					<path d="M1541.88,607.335c-1.954,0-3.928-0.125-5.908-0.381l-318.204-41.176c-20.774-2.689-37.108-19.64-38.839-40.31
						l-2.032-24.253c-1.112-13.273,3.786-26.206,13.439-35.479c9.806-9.425,23.215-13.872,36.77-12.187l331.602,41.079
						c14.441,1.788,26.736,10.062,33.73,22.702c6.895,12.463,7.395,27.009,1.373,39.907l-11.368,24.35
						C1575.015,597.49,1559.182,607.335,1541.88,607.335z M1221.476,457.611c-10.448,0-20.468,3.986-28.082,11.304
						c-8.69,8.352-13.098,19.989-12.101,31.933l2.032,24.253c1.56,18.61,16.283,33.876,35.007,36.298l318.204,41.176
						c17.632,2.295,34.46-6.906,41.907-22.855l11.368-24.35c5.419-11.605,4.969-24.693-1.235-35.906
						c-6.302-11.388-17.386-18.845-30.411-20.459l-331.602-41.079C1224.863,457.715,1223.163,457.611,1221.476,457.611z"/>
				</g>
				<g>
					<polygon style="fill:#FFFFFF;" points="1464.495,484.566 1387.575,474.536 1289.588,571.487 1367.968,582.061 					"/>
					<path d="M1367.967,584.267c-0.097,0-0.196-0.007-0.295-0.019l-78.38-10.573c-0.834-0.112-1.53-0.689-1.797-1.487
						c-0.267-0.797-0.058-1.676,0.541-2.269l97.987-96.951c0.485-0.478,1.164-0.702,1.836-0.618l76.921,10.03
						c0.832,0.108,1.53,0.679,1.803,1.472c0.271,0.793,0.071,1.672-0.519,2.267l-96.528,97.494
						C1369.118,584.034,1368.551,584.267,1367.967,584.267z M1294.328,569.901l72.844,9.825l92.622-93.549l-71.435-9.315
						L1294.328,569.901z"/>
				</g>
				<g>
					<polygon style="fill:#FFFFFF;" points="1410.682,588.515 1455.29,594.287 1509.11,541.951 1465.651,536.335 					"/>
					<path d="M1455.291,596.495c-0.095,0-0.19-0.007-0.282-0.017l-44.609-5.773c-0.845-0.11-1.551-0.696-1.816-1.504
						c-0.263-0.81-0.039-1.7,0.58-2.286l54.969-52.18c0.48-0.457,1.142-0.666,1.801-0.588l43.458,5.615
						c0.84,0.11,1.543,0.689,1.812,1.491c0.267,0.804,0.052,1.689-0.556,2.28l-53.818,52.338
						C1456.416,596.273,1455.862,596.495,1455.291,596.495z M1415.565,586.923l38.953,5.04l49.778-48.41l-37.886-4.896
						L1415.565,586.923z"/>
				</g>
				<path d="M1541.88,607.335c-1.954,0-3.928-0.125-5.908-0.381l-318.204-41.176c-20.774-2.689-37.108-19.64-38.839-40.31
					l-2.032-24.253c-1.112-13.273,3.786-26.206,13.439-35.479c9.806-9.425,23.215-13.872,36.77-12.187l331.602,41.079
					c14.441,1.788,26.736,10.062,33.73,22.702c6.895,12.463,7.395,27.009,1.373,39.907l-11.368,24.35
					C1575.015,597.49,1559.182,607.335,1541.88,607.335z M1221.476,457.611c-10.448,0-20.468,3.986-28.082,11.304
					c-8.69,8.352-13.098,19.989-12.101,31.933l2.032,24.253c1.56,18.61,16.283,33.876,35.007,36.298l318.204,41.176
					c17.632,2.295,34.46-6.906,41.907-22.855l11.368-24.35c5.419-11.605,4.969-24.693-1.235-35.906
					c-6.302-11.388-17.386-18.845-30.411-20.459l-331.602-41.079C1224.863,457.715,1223.163,457.611,1221.476,457.611z"/>
			</g>
		</g>
		<g>
			<path d="M1317.271,2108.083c-1.534,0-3.079-0.084-4.628-0.254l-133.227-14.65c-15.023-1.651-27.578-10.838-33.588-24.574
				c-5.928-13.557-4.204-28.77,4.613-40.692l176.763-239.002c8.5-11.491,22.704-17.873,37.022-16.714l124.309,10.252
				c15.025,1.241,27.815,10.049,34.217,23.564c6.313,13.327,5.077,28.543-3.31,40.702l-167.847,243.4
				C1343.779,2101.45,1330.926,2108.083,1317.271,2108.083z M1313.126,2103.441c13.708,1.517,27.063-4.559,34.837-15.831
				l167.847-243.399c7.481-10.849,8.584-24.421,2.954-36.309c-5.719-12.075-17.156-19.946-30.59-21.054l-124.309-10.252
				c-12.82-1.073-25.516,4.665-33.113,14.939l-176.763,239.002c-7.867,10.638-9.405,24.206-4.115,36.3
				c5.367,12.271,16.591,20.478,30.026,21.954L1313.126,2103.441z"/>
			<g>
				<g>
					<path style="fill:#FFFFFF;" d="M1284.461,1951.105c-11.337-1.458-23.537-6.606-29.879-20.668
						c-1.89-4.191-2.805-8.748-3.143-13.325l-0.316-3.015c-0.277-2.645-1.751-5.022-4.008-6.465l-15.063-9.627
						c-3.654-2.336-5.056-6.95-3.309-10.892l4.625-10.434c1.677-3.783,0.459-8.212-2.925-10.632l-8.576-6.135
						c-3.587-2.566-4.712-7.356-2.635-11.224l19.686-36.668c0.846-1.576,1.186-3.369,0.975-5.141l-13.317-111.853l27.231-10.572
						l50.361,107.917c1.023,2.191,2.913,3.869,5.225,4.638l15.78,5.247c4.304,1.431,6.819,5.848,5.827,10.232l-3.094,13.671
						c-0.928,4.1,1.213,8.275,5.105,9.956l10.82,4.673c4.136,1.787,6.256,6.363,4.924,10.629l-6.282,20.117
						c-0.665,2.13-0.433,4.41,0.516,6.432c11.114,23.662,4.295,42.404-9.631,55.978
						C1320.234,1946.739,1302.735,1953.454,1284.461,1951.105z"/>
					<path d="M1291.551,1953.765c-2.454,0-4.915-0.157-7.373-0.472c-15.074-1.937-26.005-9.528-31.605-21.95
						c-1.847-4.09-2.937-8.692-3.333-14.07l-0.308-2.948c-0.209-1.984-1.303-3.747-3.001-4.833l-15.066-9.629
						c-4.598-2.941-6.339-8.679-4.137-13.643l4.626-10.435c1.243-2.805,0.321-6.145-2.191-7.942l-8.576-6.137
						c-4.469-3.193-5.884-9.239-3.294-14.062l19.685-36.667c0.633-1.183,0.885-2.51,0.726-3.838l-13.316-111.853
						c-0.119-1,0.455-1.952,1.392-2.318l27.231-10.573c1.088-0.414,2.308,0.069,2.799,1.125l50.362,107.916
						c0.763,1.635,2.191,2.902,3.922,3.478l15.779,5.247c5.398,1.795,8.531,7.302,7.285,12.814l-3.094,13.669
						c-0.694,3.057,0.916,6.188,3.827,7.444l10.821,4.673c5.18,2.237,7.826,7.96,6.154,13.312l-6.283,20.116
						c-0.478,1.538-0.334,3.256,0.409,4.835c12.958,27.591,1.666,47.042-10.088,58.498
						C1322.794,1947.324,1307.319,1953.765,1291.551,1953.765z M1228.972,1696.463l13.114,110.155
						c0.265,2.228-0.157,4.458-1.22,6.443l-19.688,36.669c-1.543,2.874-0.694,6.479,1.974,8.386l8.578,6.137
						c4.206,3.008,5.744,8.61,3.656,13.32l-4.626,10.435c-1.312,2.958-0.267,6.38,2.48,8.136l15.066,9.629
						c2.836,1.812,4.663,4.762,5.012,8.093l0.315,3.017c0.366,4.919,1.332,9.035,2.961,12.646
						c5.01,11.107,14.48,17.63,28.149,19.386c16.886,2.176,34.055-3.859,47.078-16.55c10.728-10.459,21.03-28.222,9.175-53.462
						c-1.213-2.581-1.437-5.432-0.625-8.026l6.283-20.116c0.996-3.191-0.592-6.608-3.693-7.947l-10.821-4.674
						c-4.859-2.099-7.544-7.343-6.382-12.469l3.094-13.669c0.743-3.286-1.135-6.576-4.372-7.651l-15.779-5.247
						c-2.876-0.959-5.257-3.073-6.529-5.8l-49.489-106.046L1228.972,1696.463z"/>
				</g>
				<ellipse cx="1231.458" cy="1665.875" rx="61.621" ry="60.969"/>
				<path d="M1284.677,1915.224c-4.081,0-8.123-0.427-12.045-1.297c-1.189-0.265-1.939-1.444-1.676-2.633
					c0.265-1.189,1.45-1.928,2.633-1.676c13.525,2.999,28.638,0.291,41.465-7.44c12.437-7.496,21.403-18.675,25.247-31.476
					c0.349-1.166,1.566-1.829,2.749-1.478c1.166,0.351,1.827,1.581,1.478,2.749c-4.161,13.853-13.82,25.921-27.194,33.984
					C1307.244,1912.037,1295.813,1915.224,1284.677,1915.224z"/>
				<path d="M1267.849,1879.41c-1.538,0-3.068-0.06-4.594-0.183c-1.213-0.099-2.118-1.163-2.021-2.379
					c0.099-1.213,1.131-2.101,2.379-2.021c11.648,0.952,23.958-2.062,34.592-8.472c13.439-8.1,23.713-28.642,27.033-39.688
					c0.351-1.166,1.564-1.829,2.749-1.478c1.166,0.351,1.827,1.582,1.478,2.749c-3.51,11.674-14.482,33.454-28.981,42.196
					C1290.448,1876.185,1279.017,1879.41,1267.849,1879.41z"/>
				<path d="M1258.491,1840.514c-0.31,0-0.623-0.002-0.937-0.009c-1.217-0.026-2.185-1.032-2.161-2.252
					c0.026-1.217,1.077-2.148,2.252-2.161c7.686,0.166,14.467-1.859,22.566-6.744c10.983-6.617,18.466-16.973,22.876-31.659
					c0.351-1.163,1.564-1.825,2.749-1.478c1.166,0.351,1.827,1.582,1.478,2.749c-4.742,15.781-12.861,26.958-24.824,34.167
					C1273.947,1838.277,1266.711,1840.514,1258.491,1840.514z"/>
			</g>
		</g>
		<g>
			<g>
				<g>
					<path style="fill:#FFFFFF;" d="M1674.6,1138.162c0,0-128.426,31.531-183.397,17.311
						c-77.353-20.011-130.722-256.22-134.203-273.456c-3.481-17.236-6.156-110.122-26.237-140.207
						c-15.224-22.809-26.133-65.638-30.52-85.019c-1.756-7.761-9.173-13.351-17.108-12.083c-6.976,1.114-12.93,6.561-8.843,23.891
						c4.727,20.044,10.315,44.596,14.187,61.738c1.219,5.398-5.141,9.147-9.021,5.342c-9.037-8.863-20.831-17.549-29.96-14.18
						c-17.154,6.329-34.978,63.927-16.068,109.243c18.91,45.316,48.422,39.941,53.732,61.314
						c5.31,21.373,34.467,292.797,56.259,342.337c31.339,71.244,299.081,120.307,342.933,125.825
						C1730.207,1365.734,1674.6,1138.162,1674.6,1138.162z"/>
					<path d="M1687.915,1362.523c-0.599,0-1.211-0.039-1.836-0.119c-47.505-5.977-312.867-54.813-344.677-127.125
						c-15.628-35.529-35.027-184.35-46.617-273.268c-4.615-35.408-8.261-63.376-9.765-69.424
						c-2.041-8.214-7.983-12.043-16.208-17.341c-11.084-7.141-26.261-16.921-37.419-43.656c-13.223-31.689-9.011-69.119,1.03-92.154
						c4.687-10.75,10.478-17.856,16.313-20.009c8.341-3.07,19.198,1.859,32.267,14.676c1.541,1.508,3.208,0.763,3.68,0.5
						c1.073-0.599,2.068-1.905,1.644-3.779c-3.84-16.998-9.416-41.504-14.184-61.719c-2.202-9.343-1.773-16.389,1.28-20.946
						c2.058-3.07,5.208-4.967,9.362-5.63c8.914-1.422,17.539,4.626,19.61,13.775c4.018,17.757,15.007,61.517,30.205,84.281
						c15.385,23.051,20.692,81.471,23.861,116.376c1.039,11.42,1.857,20.439,2.702,24.62c0.506,2.506,54.133,251.46,132.592,271.757
						c53.807,13.911,181.04-17.001,182.32-17.315c0.562-0.14,1.17-0.047,1.67,0.254c0.5,0.304,0.86,0.795,1,1.364
						c1.907,7.804,46.41,191.488,20.48,220.57C1694.667,1361.078,1691.543,1362.523,1687.915,1362.523z M1253.844,722.954
						c-1.241,0-2.441,0.194-3.581,0.614c-4.626,1.707-9.653,8.132-13.794,17.632c-9.666,22.176-13.726,58.203-1.002,88.692
						c10.627,25.466,24.551,34.436,35.736,41.644c8.393,5.406,15.639,10.075,18.102,19.987c1.562,6.292,5.042,32.98,9.858,69.918
						c11.56,88.683,30.907,237.112,46.279,272.063c30.913,70.269,301.438,119.519,341.191,124.522c2.926,0.373,5.32-0.53,7.3-2.754
						c22.982-25.777-15.971-193.469-20.961-214.447c-17.619,4.202-130.702,30.133-182.318,16.781
						c-81.019-20.959-135.302-272.622-135.815-275.153c-0.89-4.415-1.719-13.542-2.769-25.096
						c-3.133-34.486-8.377-92.206-23.139-114.324c-15.604-23.379-26.764-67.761-30.838-85.757
						c-1.558-6.886-7.972-11.431-14.609-10.392c-2.935,0.47-5.027,1.689-6.393,3.73c-2.342,3.497-2.56,9.375-0.649,17.477
						c4.771,20.233,10.351,44.751,14.193,61.758c0.778,3.448-0.748,6.906-3.799,8.606c-2.98,1.666-6.481,1.192-8.921-1.202
						C1270.958,730.431,1261.57,722.954,1253.844,722.954z"/>
				</g>
				<g>
					<g>
						<path style="fill:#FFFFFF;" d="M1949.113,1088.517l4.78-177.15l-107.775,33.18l-25.352,119.703
							c-3.657,24.003,14.116,41.154,14.116,41.154c21.649,23.213,57.56,26.555,86.618,13.661l6.73-2.986
							C1939.486,1111.084,1947.375,1100.672,1949.113,1088.517z"/>
						<path d="M1886.44,1128.857c-20.485,0-39.756-7.561-53.174-21.948c-0.677-0.649-18.468-18.145-14.682-42.991l25.374-119.827
							c0.166-0.784,0.743-1.416,1.51-1.653l107.776-33.18c0.683-0.205,1.418-0.075,1.982,0.353c0.567,0.429,0.892,1.105,0.873,1.816
							l-4.781,177.149c-0.002,0.084-0.011,0.168-0.022,0.252c-1.855,12.988-10.144,23.93-22.174,29.267l-6.729,2.986
							C1910.61,1126.312,1898.319,1128.857,1886.44,1128.857z M1848.007,946.274l-25.083,118.433
							c-3.413,22.42,13.32,38.948,13.491,39.112c19.683,21.101,54.271,26.503,84.191,13.23l6.729-2.986
							c10.59-4.699,17.901-14.314,19.576-25.736l4.695-173.947L1848.007,946.274z M1949.112,1088.516h0.021H1949.112z"/>
					</g>
					<path d="M1862.348,720.035c29.229,6.218-15.066,25.675,99.864,23.973c45.768-0.678,10.764,42.482,22.637,42.338
						c43.848-0.534,42.355-0.562,60.756,10.023c12.185,7.009,14.092,33.337,6.661,50.586c-9.809,22.769-31.202,23.499-62.485,68.724
						c-21.969,31.761-24.868,53.917-40.484,55.159c-15.79,1.255-21.107-20.737-38.458-20.658
						c-22.454,0.102-28.236,37.002-52.641,46.295c-15.383,5.858-46.362,2.062-87.716-33.998c-6.701-5.843-8.266-15.636-3.695-23.264
						c5.857-9.774,13.323-22.082,21.447-33.247c38.718-53.214,63.733-60.804,60.265-78.276
						c-5.313-26.773-53.981-25.554-56.07-46.925C1790.261,758.57,1822.331,711.522,1862.348,720.035z"/>
					<g>
						<path style="fill:#FFFFFF;" d="M1934.494,849.614l-12.449,12.982c-5.864,6.116-11.289,12.616-16.252,19.478
							c-9.306,12.866-25.474,34.872-35.474,46.511c-14.69,17.098-71.223-24.143-71.223-24.143l-0.448-13.16l-6.523-4.974
							c-1.262-0.962-2.335-2.189-2.945-3.651c-1.524-3.651-0.432-7.643,2.389-10.034c15.42-13.069,48.302-42.889,65.491-73.028
							C1857.061,799.596,1907.266,800.413,1934.494,849.614z"/>
						<path d="M1859.504,934.931c-21.597,0-56.899-25.197-61.708-28.707c-0.549-0.399-0.884-1.03-0.905-1.707l-0.411-12.116
							l-5.693-4.34c-1.672-1.278-2.93-2.853-3.641-4.555c-1.849-4.43-0.642-9.481,2.999-12.566
							c13.786-11.685,47.716-42.133,64.999-72.437c0.401-0.7,1.194-1.105,1.954-1.114c0.515,0.009,51.799,1.413,79.327,51.155
							c0.468,0.847,0.332,1.898-0.338,2.596l-12.45,12.982c-5.777,6.025-11.179,12.5-16.055,19.244
							c-8.942,12.362-25.453,34.859-35.589,46.656C1869.002,933.505,1864.639,934.931,1859.504,934.931z M1801.263,903.287
							c15.932,11.452,56.623,36.373,67.382,23.861c10.032-11.679,26.462-34.064,35.361-46.367
							c4.997-6.908,10.53-13.54,16.447-19.713l11.317-11.799c-24.016-41.849-65.682-46.828-73.473-47.395
							c-17.151,29.388-48.181,57.927-65.298,72.432c-2.17,1.838-2.885,4.852-1.78,7.503c0.414,0.989,1.189,1.939,2.247,2.745
							l6.522,4.973c0.526,0.401,0.845,1.017,0.866,1.678L1801.263,903.287z"/>
					</g>
					<path style="fill:#FFFFFF;" d="M1908.15,899.608c0,0,29.892-31.253,41.271-14.714
						C1960.8,901.433,1927.025,935.015,1908.15,899.608z"/>
				</g>
				<path d="M2067.058,1606.009c23.166-56.034,42.831-115.039,58.639-175.532c6.252-47.923,93.037-336.032-35.177-356.064
					c-38.415-6.003-84.721-12.442-103.507-21.222c-7.726-3.612-16.434-4.6-24.769-2.737
					c-70.318,15.716-127.454-4.849-162.523,12.998c-5.692,2.897-30.726,16.298-38.576,17.619
					c-56.621,9.532-23.455,4.98-100.461,6.446c-51.512,0.981-110.253,21.596-145.442,36.097
					c-18.224,7.51-27.944,27.268-22.76,46.115l23.468,134.106c4.389,25.076,20.302,46.513,42.78,58.882
					c54.13,29.788,86.007,80.169,86.014,80.182c45.996,92.832,38.636,153.46,34.501,233.456
					c-6.299,121.882-67.154,245.161-66.456,247.34c12.323,38.475,89.285,46.667,178.835,41.871
					C1909.292,1874.08,2006.301,1752.98,2067.058,1606.009z"/>
			</g>
			<g>
				<g>
					<path style="fill:#FFFFFF;" d="M2119.993,1451.639c-41.698,4.226-83.396,8.454-125.093,12.68
						c-88.818,11.935-168.006,5.872-227.101-3.097c-108.278-16.434-194.903,58.306-211.595,118.561l-22.766,77.927
						c-64.496,179.568-144.537,323.176-206.715,420.143c-16.96,26.45-12.003,58.413,6.887,79.073
						c79.453-2.892,251.123-20.235,424.687-134.049c40.651-26.657,243.641-164.991,329.68-428.757
						C2106.493,1537.356,2115.373,1487.722,2119.993,1451.639z"/>
					<path d="M1333.611,2159.132c-0.597,0-1.194-0.241-1.629-0.718c-20.931-22.891-23.79-55.744-7.117-81.754
						c57.821-90.17,140.581-236.179,206.496-419.695l22.724-77.8c16.578-59.843,102.327-137.095,214.046-120.125
						c77.737,11.797,153.934,12.84,226.476,3.09l125.164-12.687c1.235-0.09,2.293,0.763,2.418,1.974
						c0.123,1.211-0.761,2.295-1.974,2.418l-125.093,12.678c-72.881,9.795-149.502,8.75-227.655-3.111
						c-48.08-7.292-97.311,3.422-138.61,30.194c-34.951,22.655-61.976,55.906-70.528,86.776l-22.773,77.957
						c-66.095,184.033-149.032,330.35-206.976,420.714c-15.578,24.299-12.902,54.999,6.66,76.393
						c0.821,0.898,0.758,2.295-0.14,3.118C1334.677,2158.94,1334.143,2159.132,1333.611,2159.132z"/>
					<path d="M1581.248,2091.23c-0.858,0-1.674-0.504-2.03-1.342c-0.478-1.123,0.045-2.417,1.166-2.894
						c179.299-76.22,325.739-201.191,423.489-361.404c0.636-1.043,1.997-1.37,3.032-0.735c1.041,0.633,1.37,1.993,0.735,3.032
						c-49.614,81.321-112.374,154.231-186.535,216.707c-71.327,60.09-151.736,109.366-238.993,146.459
						C1581.83,2091.175,1581.537,2091.23,1581.248,2091.23z"/>
					<g>
						<path d="M1473.175,2125.443c-0.362,0-0.728-0.088-1.067-0.276c-1.067-0.59-1.452-1.933-0.862-2.999
							c78.767-142.275,125.412-251.464,151.245-354.041l19.821-78.711c15.262-64.408,102.797-110.609,163.779-103.228
							c76.343,9.24,152.523,7.47,226.42-5.244l47.796-10.509c1.189-0.256,2.366,0.489,2.629,1.681
							c0.263,1.189-0.491,2.368-1.681,2.629l-47.895,10.528c-74.421,12.81-151.03,14.583-227.799,5.298
							c-59.181-7.145-144.18,37.524-158.963,99.892l-19.828,78.741c-25.93,102.962-72.704,212.479-151.663,355.101
							C1474.705,2125.033,1473.951,2125.443,1473.175,2125.443z"/>
					</g>
				</g>
				<g>
					<g>
						<path style="fill:#FFFFFF;" d="M1821.076,1514.719c-8.683-1.875-14.185-10.359-12.291-18.949l32.347-146.66l31.442,6.789
							l-32.347,146.66C1838.333,1511.149,1829.758,1516.593,1821.076,1514.719z"/>
						<path d="M1824.508,1517.293c-1.286,0-2.592-0.136-3.898-0.418c-4.805-1.039-8.905-3.874-11.545-7.985
							c-2.607-4.064-3.471-8.89-2.435-13.594l32.349-146.662c0.263-1.185,1.435-1.937,2.62-1.681l31.441,6.787
							c0.573,0.125,1.075,0.472,1.392,0.965c0.317,0.493,0.424,1.095,0.297,1.668l-32.346,146.66
							C1840.515,1511.497,1832.917,1517.293,1824.508,1517.293z M1821.541,1512.562c7.483,1.622,14.902-3.081,16.533-10.48
							l31.868-144.494l-27.128-5.857l-31.875,144.516c-0.782,3.549-0.129,7.192,1.84,10.259
							C1814.779,1509.623,1817.891,1511.773,1821.541,1512.562z"/>
					</g>
					<g>
						<path style="fill:#FFFFFF;" d="M2016.636,1503.529c-8.855-0.747-15.422-8.454-14.667-17.215l12.88-149.569l32.066,2.703
							l-12.88,149.57C2033.28,1497.778,2025.49,1504.276,2016.636,1503.529z"/>
						<path d="M2018.015,1505.794c-0.519,0-1.039-0.021-1.564-0.067c-4.904-0.414-9.341-2.702-12.493-6.443
							c-3.113-3.693-4.6-8.367-4.186-13.161l12.881-149.569c0.103-1.211,1.198-2.152,2.383-2.008l32.066,2.704
							c0.584,0.047,1.125,0.327,1.502,0.776c0.377,0.448,0.562,1.028,0.51,1.612l-12.881,149.569
							C2035.421,1498.642,2027.405,1505.794,2018.015,1505.794z M2016.821,1501.331c7.656,0.625,14.365-4.969,15.016-12.504
							l12.691-147.367l-27.668-2.334l-12.693,147.375c-0.31,3.618,0.812,7.147,3.165,9.938
							C2009.724,1499.278,2013.096,1501.017,2016.821,1501.331z"/>
					</g>
					<g>
						<g>
							<path style="fill:#FFFFFF;" d="M1934.301,1052.99l127.658-25.679c38.927-7.83,74.979,22.493,73.437,61.766l-9.637,245.375
								c-0.975,24.816-17.045,47.724-41.282,54.18c-214.708,57.188-290.748,29.422-290.748,29.422
								c-39.83-9.852-52.092-45.132-42.799-76.057l50.76-168.917C1820.078,1111.886,1871.069,1065.709,1934.301,1052.99z"/>
							<path d="M1856.531,1427.158c-42.413,0.002-61.256-6.212-63.445-6.99c-17.873-4.447-31.568-14.249-39.608-28.347
								c-8.25-14.473-9.95-32.864-4.663-50.459l50.76-168.918c18.664-62.109,70.12-108.709,134.29-121.618l127.657-25.678
								c19.373-3.891,39.082,1.194,54.068,13.96c14.742,12.564,22.767,30.808,22.01,50.054l-9.638,245.375
								c-1.047,26.654-18.696,49.774-42.917,56.227C1975.602,1419.914,1902.325,1427.158,1856.531,1427.158z M1934.736,1055.153
								c-62.568,12.586-112.741,58.015-130.933,118.563l-50.76,168.918c-4.943,16.443-3.385,33.575,4.271,47.001
								c7.44,13.053,20.218,22.14,36.945,26.279c0.075,0.019,0.151,0.041,0.224,0.069c0.756,0.274,78.22,26.774,289.426-29.483
								c22.37-5.958,38.673-27.395,39.646-52.133l9.638-245.375c0.7-17.884-6.757-34.842-20.465-46.522
								c-13.947-11.885-32.295-16.619-50.334-12.993L1934.736,1055.153z"/>
						</g>
						<path d="M1823.51,1379.935c-0.194,0-0.392-0.026-0.586-0.08c-1.176-0.323-1.866-1.536-1.543-2.711l45.24-164.559
							c16.259-54.115,61.051-94.68,116.908-105.917l110.913-22.31c1.183-0.25,2.357,0.534,2.599,1.728
							c0.239,1.196-0.534,2.357-1.728,2.599l-110.913,22.31c-54.255,10.914-97.761,50.308-113.538,102.809l-45.227,164.507
							C1825.365,1379.293,1824.478,1379.935,1823.51,1379.935z"/>
					</g>
				</g>
			</g>
		</g>
		<g>
			<g>
				<g>
					<path d="M907.939,873.152c-150.955-0.051-273.368,120.986-273.42,270.344c-0.051,149.357,122.279,270.477,273.233,270.528
						s273.369-120.986,273.421-270.344C1181.225,994.322,1058.893,873.203,907.939,873.152z M907.772,1356.994
						c-119.121-0.04-215.655-95.617-215.615-213.479c0.041-117.86,96.641-213.373,215.762-213.333
						c119.122,0.04,215.656,95.618,215.616,213.479C1123.494,1261.522,1026.894,1357.034,907.772,1356.994z"/>
					<polygon points="1148.027,1167.188 674.741,1098.283 683.783,1037.48 1157.069,1106.385 					"/>
					<g>
						<path d="M936.333,1231.655l-87.832-13.218c-24.011-3.613-42.857-22.254-46.518-46.01l-11.32-73.47
							c-5.631-36.546,26.109-68.044,63.063-62.582l138.453,20.467c38.881,5.748,59.561,48.569,39.655,82.11l-39.301,66.221
							C981.038,1224.544,958.778,1235.033,936.333,1231.655z"/>
						<path style="fill:#FFFFFF;" d="M944.821,1234.5c-2.918,0-5.861-0.218-8.815-0.661l-87.832-13.217
							c-25.104-3.779-44.542-23.01-48.371-47.856l-11.319-73.471c-2.769-17.97,3.027-35.708,15.906-48.664
							c13.096-13.176,31.202-19.16,49.659-16.436l138.455,20.468c19.112,2.825,35.44,14.844,43.678,32.152
							c8.127,17.076,7.212,36.988-2.448,53.266l-39.302,66.221C983.922,1224.01,965.073,1234.497,944.821,1234.5z M845.316,1037.961
							c-14.174,0-27.621,5.542-37.798,15.781c-11.879,11.95-17.227,28.311-14.674,44.88l11.319,73.471
							c3.534,22.926,21.482,40.674,44.665,44.163l87.832,13.217c21.702,3.273,42.872-6.716,53.975-25.426l39.302-66.22
							c9.041-15.234,9.864-33.137,2.26-49.116c-7.606-15.977-22.685-27.074-40.34-29.683l-138.455-20.468
							C850.695,1038.159,847.99,1037.961,845.316,1037.961z"/>
					</g>
					<path style="fill:#FFFFFF;" d="M924.92,1180.352c-1.336,0-2.685-0.099-4.038-0.302l-38.373-5.775
						c-11.508-1.732-20.42-10.549-22.176-21.946l-4.945-32.099c-1.271-8.246,1.388-16.382,7.296-22.327
						c6.001-6.035,14.281-8.78,22.758-7.533l60.489,8.942c8.761,1.295,16.247,6.804,20.024,14.742
						c3.73,7.834,3.31,16.97-1.123,24.439l-17.171,28.931C942.84,1175.545,934.202,1180.352,924.92,1180.352z M881.449,1094.489
						c-5.863,0-11.426,2.293-15.635,6.526c-4.911,4.939-7.121,11.698-6.065,18.543l4.945,32.099
						c1.461,9.476,8.884,16.811,18.47,18.252l38.373,5.775c8.97,1.342,17.735-2.775,22.327-10.513l17.171-28.931
						c3.736-6.292,4.077-13.687,0.935-20.289c-3.144-6.606-9.381-11.194-16.686-12.273l-60.489-8.942
						C883.674,1094.571,882.556,1094.489,881.449,1094.489z"/>
				</g>
				<g>
					<g>
						<path style="fill:#FFFFFF;" d="M1237.621,1471.774c19.996-61.446,6.901-83.081,0.538-104.228
							c-21.152-22.622-76.04-15.005-130.39,2.384c-130.9,41.883-318.357,123.635-346.454,269.524
							c-6.424,33.359-59.996,307.631-29.421,387.001c79.306,48.055,165.731,85.258,254.21,108.838
							c14.817-7.084,29.092-16.622,42.439-28.895c100.982-101.28-19.707-308.574,13.756-439.104
							C1055.036,1617.607,1204.967,1572.114,1237.621,1471.774z"/>
						<path d="M986.105,2137.498c-0.19,0-0.381-0.024-0.569-0.075c-88.556-23.598-174.279-60.299-254.785-109.082
							c-0.418-0.254-0.739-0.638-0.916-1.095c-27.408-71.146,11.157-294.089,29.011-386.637l0.304-1.573
							c12.577-65.311,58.209-124.253,135.63-175.19c55.141-36.279,126.574-68.582,212.318-96.016
							c38.623-12.355,107.214-29.022,132.674-1.791c0.233,0.248,0.403,0.545,0.502,0.87c0.778,2.588,1.659,5.182,2.566,7.858
							c6.518,19.218,14.633,43.133-3.12,97.688c-19.168,58.897-78.591,99.36-126.339,131.872
							c-34.234,23.312-63.799,43.443-68.944,63.512c-13.572,52.945-1.265,120.25,10.64,185.339
							c17.455,95.436,35.505,194.124-24.971,254.776c-13.17,12.112-27.63,21.956-43.049,29.328
							C986.758,2137.425,986.432,2137.498,986.105,2137.498z M733.688,2024.96c79.72,48.224,164.561,84.553,252.197,107.989
							c14.749-7.143,28.595-16.619,41.166-28.177c58.774-58.95,40.937-156.481,23.687-250.801
							c-11.991-65.557-24.389-133.344-10.575-187.226c5.559-21.683,35.762-42.249,70.734-66.065
							c47.192-32.133,105.925-72.126,124.626-129.59l2.099,0.683l-2.099-0.683c17.3-53.159,9.448-76.307,3.139-94.904
							c-0.866-2.551-1.707-5.031-2.461-7.501c-24.1-24.932-90.312-8.632-127.759,3.346
							c-85.361,27.311-156.431,59.442-211.238,95.501c-76.386,50.258-121.377,108.241-133.721,172.339l-0.304,1.573
							C745.457,1733.317,707.209,1954.116,733.688,2024.96z"/>
					</g>
					<g>
						<path style="fill:#FFFFFF;" d="M1226.935,1031.36c-21.723-69.157-92.788-72.431-106.323-59.678
							c-17.353,16.352,54.902,42.141,36.225,84.096c-12.363,4.539-26.919-11.312-33.155-16.983
							c-18.408-16.739-28.707-3.667-19.7,20.701c7.04,19.048,24.135,34.012,38.857,43.96c15.619,10.554,23.773,28.964,21.296,47.516
							c-7.937,59.452-31.036,177.923-89.681,186.097c-67.035,9.343-215.96-42.207-215.96-42.207l-57.59,139.517
							c0,0,107.979,37.518,224.598,26.966c72.598-6.568,147.17-30.882,184.246-75.611c31.333-37.799,16.872-274.184,16.872-274.184
							C1222.678,1066.085,1235.92,1059.965,1226.935,1031.36z"/>
						<path d="M983.362,1465.402c-98.604,0.002-182.232-28.608-183.182-28.94c-0.573-0.198-1.039-0.625-1.289-1.179
							c-0.248-0.554-0.258-1.185-0.028-1.748l57.589-139.517c0.448-1.079,1.653-1.62,2.762-1.243
							c1.482,0.513,149.151,51.273,214.936,42.109c58.127-8.104,80.762-131.519,87.798-184.205
							c2.39-17.906-5.406-35.3-20.345-45.395c-14.016-9.472-32.28-24.971-39.692-45.022c-5.176-14.008-4.488-25.346,1.799-29.586
							c3.068-2.071,9.942-3.984,21.456,6.486c0.7,0.638,1.504,1.4,2.396,2.247c6.378,6.059,18.08,17.188,27.643,14.577
							c9.216-22.234-8.871-39.899-23.443-54.128c-9.013-8.802-16.132-15.753-16.07-22.581c0.024-2.67,1.17-5.092,3.406-7.199
							c6.346-5.979,23.801-9.149,44.885-3.644c18.255,4.766,50.98,19.453,65.057,64.266c4.865,15.486,3.407,24.695,1.558,36.354
							c-1.618,10.22-3.633,22.939-1.78,44.307c0.597,9.741,14.156,237.75-17.373,275.782
							c-33.439,40.342-102.876,68.903-185.746,76.399C1011.422,1464.833,997.238,1465.4,983.362,1465.402z M803.847,1433.03
							c15.997,5.188,115.785,35.677,221.456,26.117c81.724-7.393,150.041-35.363,182.747-74.82
							c30.424-36.703,16.514-270.286,16.369-272.641c-1.896-21.851,0.166-34.865,1.823-45.322
							c1.825-11.521,3.142-19.845-1.411-34.342c-13.439-42.786-44.589-56.785-61.961-61.321
							c-18.623-4.859-35.344-2.502-40.745,2.586c-1.364,1.286-2.006,2.566-2.021,4.027c-0.043,4.947,7.139,11.961,14.743,19.386
							c14.915,14.564,35.341,34.512,24.008,59.974c-0.243,0.545-0.696,0.97-1.256,1.174c-12.269,4.512-25.807-8.337-33.075-15.24
							c-0.866-0.823-1.646-1.564-2.325-2.181c-6.682-6.076-12.665-8.354-16.02-6.094c-3.644,2.456-5.094,10.954-0.125,24.398
							c7.003,18.951,24.54,33.788,38.02,42.898c16.337,11.036,24.863,30.056,22.249,49.634
							c-8.903,66.684-32.637,179.778-91.564,187.991c-63.383,8.843-196.451-35.32-215.018-41.633L803.847,1433.03z"/>
					</g>
					<g>
						<path d="M933.45,1915.774c46.51-50.842,58.893-128.138,15.089-181.279c-121.729-147.672-79.055-205.308-79.055-205.308
							l57.724,1.278c16.077,0.355,30.36-10.126,34.614-25.47c12.782-46.088,33.081-144.433,1.186-221.964
							c-11.137-27.075-112.292-97.186-261.788-145.065c-77.331-24.767-198.643-43.944-264.055-42.802
							c-0.007,0.01-0.012,0.019-0.018,0.029c-11.924,18.191-22.353,36.66-31.468,55.171c-0.001,0.001-0.001,0.002-0.001,0.002
							c-25.484,51.739-43.834,110.674-53.394,174.02c-4.586,30.385,16.046,21.682,15.688,53.79
							c-0.59,51.99-17.328,142.364-4.876,190.578c45.585,176.501,171.511,325.448,326.139,430.335
							c4.943,2.353,9.931,4.697,15.015,7.023C745.046,1999.974,808.235,2052.656,933.45,1915.774z"/>
						<path style="fill:#FFFFFF;" d="M768.962,2013.282c-13.032,0-24.501-1.683-34.676-3.178
							c-11.334-1.666-21.116-3.105-29.709-1.808c-0.418,0.058-0.855,0.002-1.245-0.177c-5.096-2.331-10.093-4.68-15.044-7.037
							c-0.101-0.05-0.198-0.103-0.291-0.168c-168.536-114.32-284.679-267.601-327.036-431.608
							c-8.408-32.549-3.656-84.15,0.534-129.676c2.096-22.769,4.074-44.273,4.271-61.478c0.166-14.85-4.286-20.364-8.591-25.697
							c-4.704-5.828-9.569-11.855-7.074-28.397c9.509-62.991,27.539-121.758,53.596-174.667
							c9.448-19.181,20.075-37.813,31.586-55.378c0.009-0.015,0.017-0.028,0.026-0.041c0.401-0.614,1.086-1.002,1.819-1.015
							c67.276-1.131,188.485,18.477,264.765,42.909c144.833,46.382,250.883,116.485,263.156,146.324
							c31.629,76.882,12.887,172.964-1.099,223.395c-4.527,16.328-19.554,27.425-36.789,27.087l-56.466-1.25
							c-4.484,7.919-31.213,67.304,79.547,201.671c21.273,25.807,30.547,58.013,26.815,93.137
							c-3.499,32.939-18.408,65.268-41.978,91.034C861.104,1998.132,808.031,2013.282,768.962,2013.282z M711.822,2003.381
							c7.057,0,14.665,1.118,23.107,2.357c39.746,5.837,99.825,14.658,196.892-91.452c42.364-46.307,61.125-122.452,15.016-178.388
							c-121.43-147.31-80.909-205.615-79.125-208.023c0.416-0.562,1.075-0.894,1.773-0.894c0.015,0,0.032,0,0.05,0l57.724,1.278
							c15.141,0.345,28.453-9.474,32.437-23.855c13.835-49.886,32.398-144.871,1.271-220.534
							c-9.985-24.277-108.226-95.061-260.419-143.803c-75.466-24.172-195.119-43.538-262.178-42.717
							c-11.219,17.218-21.53,35.344-30.711,53.988c-25.859,52.502-43.756,110.834-53.193,173.378
							c-2.206,14.62,1.661,19.414,6.143,24.966c4.57,5.663,9.752,12.081,9.569,28.518c-0.198,17.382-2.185,38.974-4.29,61.831
							c-4.159,45.169-8.871,96.365-0.657,128.17c42.077,162.917,157.541,315.259,325.104,428.967
							c4.693,2.232,9.425,4.458,14.245,6.669C706.935,2003.519,709.344,2003.381,711.822,2003.381z"/>
					</g>
					<g>
						<g>
							<path style="fill:#FFFFFF;" d="M705.216,824.497c0,0,20.733,30.74,22.002,56.152c0.335,6.716,3.162,28.194,19.879,51.682
								c1.616,2.271,1.255,5.349-0.862,7.217l-15.976,14.094c-1.104,0.974-1.736,2.33-1.745,3.767
								c-0.055,8.967-0.331,42.107-1.422,48.283c-1.265,7.157-7.077,13.48-9.964,15.024c-7.624,4.076-40.667-0.086-40.667-0.086
								s-8.865,0.83-26.24,47.364c-18.764,50.255,20.155,69.246,20.155,69.246c14.617,7.55,14.89,14.859-0.924,19.844
								c-54.532,17.191-167.276,29.76-224.206-33.461c-3.249-3.608-1.627-9.388,3.135-10.778
								c144.647-42.214,75.711-163.855,78.768-164.657c7.821-2.051,52.746-48.887,79.073-62.216
								c17.946-9.086,39.711,4.061,54.312-9.687L705.216,824.497z"/>
							<path d="M575.518,1173.226c-47.748,0.002-98.862-11.424-131.911-48.125c-2.036-2.262-2.756-5.357-1.924-8.283
								c0.836-2.945,3.111-5.223,6.081-6.089c40.896-11.935,68.366-31.454,81.646-58.011c19.55-39.099,2.87-83.48-2.612-98.063
								c-1.922-5.113-2.323-6.177-1.679-7.421c0.287-0.554,0.866-1.021,1.47-1.181c2.706-0.709,13.374-10.17,23.691-19.319
								c17.462-15.482,39.19-34.751,54.945-42.73c8.666-4.387,17.919-3.913,26.873-3.461c10.047,0.508,19.558,0.998,26.841-5.787
								l44.607-51.702c0.448-0.519,1.107-0.795,1.801-0.761c0.685,0.041,1.314,0.399,1.698,0.967
								c0.86,1.278,21.09,31.547,22.377,57.278c0.207,4.159,2.125,26.137,19.472,50.51c2.267,3.187,1.752,7.55-1.2,10.153
								l-15.975,14.094c-0.638,0.565-0.993,1.319-0.998,2.125c-0.058,9.817-0.338,42.336-1.457,48.655
								c-1.338,7.576-7.41,14.615-11.095,16.585c-7.705,4.124-36.24,0.864-41.474,0.22c-1.47,0.745-9.698,6.49-24.408,45.884
								c-17.856,47.83,17.541,65.753,19.056,66.494c8.591,4.437,12.555,8.789,12.165,13.333c-0.379,4.409-4.76,7.873-13.394,10.597
								C647.148,1166.43,612.333,1173.224,575.518,1173.226z M529.607,949.508c0.327,0.95,0.829,2.286,1.321,3.594
								c5.65,15.031,22.84,60.767,2.428,101.588c-13.852,27.703-42.234,47.983-84.357,60.276c-1.528,0.446-2.646,1.56-3.073,3.06
								c-0.42,1.478-0.071,2.98,0.959,4.124c57.029,63.329,170.086,49.168,221.902,32.831c9.039-2.849,10.23-5.68,10.325-6.766
								c0.097-1.144-0.655-4.314-9.75-9.011c-0.362-0.177-40.45-20.444-21.209-71.98c16.998-45.522,26.391-48.63,28.099-48.791
								c0.162-0.015,0.321-0.009,0.483,0.009c12.506,1.573,34.251,3.058,39.351,0.33c2.487-1.329,7.712-7.123,8.832-13.46
								c0.838-4.751,1.267-27.867,1.388-47.914c0.013-2.049,0.92-4.021,2.491-5.408l15.977-14.094
								c1.271-1.123,1.491-2.924,0.524-4.284c-18.061-25.374-20.067-48.477-20.286-52.85c-1.019-20.44-15.258-44.878-20.06-52.583
								l-42.749,49.552c-0.05,0.058-0.101,0.112-0.157,0.166c-8.658,8.151-19.595,7.6-30.172,7.057
								c-8.371-0.418-17.035-0.866-24.654,2.993c-15.249,7.718-36.742,26.779-54.012,42.094
								C541.06,940.809,533.725,947.241,529.607,949.508z M676.922,1022.783L676.922,1022.783L676.922,1022.783z"/>
						</g>
						<path d="M745.7,930.807c-1.148,0-2.116-0.888-2.198-2.049c-0.088-1.215,0.827-2.271,2.043-2.357
							c4.992-0.355,8.804-2.357,11.653-6.115c8.298-10.948,5.525-33.01,4.413-39.849l-113.262,17.595
							c-1.198,0.187-2.331-0.638-2.519-1.842c-0.187-1.205,0.638-2.331,1.842-2.519l115.395-17.927
							c1.155-0.181,2.263,0.584,2.5,1.737c0.259,1.254,6.188,30.903-4.85,45.471c-3.611,4.764-8.61,7.406-14.857,7.85
							C745.806,930.805,745.752,930.807,745.7,930.807z"/>
						<path d="M647.588,944.207c-9.517,0-24.458-3.473-32.57-23.182c-5.023-12.206-3.484-22.642,4.217-28.634
							c8.003-6.223,20.373-5.527,30.093,1.689c3.616,2.687,8.369,10.187,8.899,11.032c0.646,1.034,0.334,2.394-0.698,3.042
							c-1.034,0.646-2.396,0.332-3.042-0.698c-1.319-2.105-5.29-7.977-7.791-9.834c-8.13-6.04-18.306-6.759-24.749-1.75
							c-6.02,4.684-7.057,13.238-2.846,23.471c10.965,26.641,34.973,19.905,35.984,19.604c1.189-0.349,2.398,0.328,2.741,1.491
							c0.345,1.17-0.323,2.396-1.491,2.741C656.231,943.21,652.688,944.207,647.588,944.207z"/>
						<path d="M747.769,748.367c-10.601-17.591-22.009-32.698-56.861-39.488c-23.869-4.651-62.781,12.778-81.938,32.89
							c-1.6,1.68-4.142,1.732-5.477,0.067c-4.117-5.137-13.892-16.756-22.551-17.774c-25.062-2.947-50.734,29.176-59.857,45.7
							c-6.663,12.069-17.895,39.347-23.563,71.055c-0.355,1.982-2.182,3.455-4.152,3.268c-7.551-0.714-22.691-0.679-36.134,9.163
							c-23.967,17.547-21.37,43.249-21.09,46.391c3.257,36.621,40.876,63.676,69.396,78.348
							c19.355,9.957,26.621,11.383,38.012,13.992c0.658,0.15,1.347,0.1,1.994-0.115c10.073,1.461,27.186,2.22,46.248-4.323
							c30.294-10.398,28.005-60.12,28.005-60.12l-3.814-9.375c-2.311-5.68-2.638-12.088-0.296-17.755
							c7.148-17.292,33.532-4.302,34.506-4.502c49.631-10.2,67.168-24.579,76.182-34.368
							C758.687,826.335,773.437,790.962,747.769,748.367z"/>
					</g>
				</g>
			</g>
			<g>
				<g>
					<path style="fill:#FFFFFF;" d="M915.752,2000.603c-0.513-26.032-16.463-79.923-23.078-105.122l-101.737-387.549
						c-15.126-66.193-34.208-92.44-83.147-102.702l-116.171-10.437c-83.918-7.54-165.295-31.489-239.312-70.403
						c-0.892,5.156-2.154,12.8-3.449,22.074c-6.147,44.009-21.76,187.03,32.637,336.484
						c103.726,284.98,387.485,388.594,418.581,399.391c41.573,14.435,77.51,22.134,102.529,26.458
						C918.639,2059.076,916.173,2021.994,915.752,2000.603z"/>
					<path d="M902.606,2111.004c-0.224,0-0.453-0.034-0.677-0.105c-1.159-0.375-1.797-1.618-1.424-2.778
						c14.637-45.386,13.753-79.474,13.172-102.029c-0.05-1.916-0.097-3.732-0.131-5.447c-0.424-21.532-11.692-62.909-19.147-90.286
						c-1.461-5.37-2.782-10.222-3.857-14.318l-101.739-387.549c-15.445-67.582-34.458-91.208-81.342-101.077l-116.039-10.425
						c-84.643-7.604-165.44-31.375-240.144-70.648c-1.077-0.567-1.493-1.901-0.924-2.98c0.567-1.073,1.894-1.491,2.98-0.924
						c74.184,39,154.421,62.605,238.484,70.157l116.169,10.437c0.084,0.009,0.17,0.021,0.254,0.039
						c48.5,10.17,69.116,35.531,84.846,104.369l101.721,387.48c1.073,4.085,2.392,8.925,3.848,14.279
						c7.513,27.589,18.866,69.28,19.302,91.359c0.032,1.707,0.08,3.514,0.129,5.419c0.556,21.467,1.485,57.395-13.381,103.497
						C904.405,2110.409,903.539,2111.004,902.606,2111.004z"/>
					<path d="M800.85,2066.798c-0.332,0-0.67-0.075-0.989-0.235c-221.803-111.497-385.674-295.841-438.352-493.121
						c-0.315-1.176,0.384-2.385,1.562-2.7c1.164-0.319,2.387,0.383,2.7,1.562c52.361,196.08,215.378,379.376,436.073,490.315
						c1.088,0.547,1.528,1.875,0.98,2.963C802.436,2066.354,801.658,2066.798,800.85,2066.798z"/>
					<path d="M809.294,1982.476c-0.996,0-1.9-0.679-2.144-1.691l-89.422-372.274c-14.37-67.615-32.092-91.2-75.865-101
						l-107.209-16.083c-57.203-5.456-124.964-31.39-181.141-69.362c-1.01-0.681-1.276-2.053-0.592-3.062
						c0.679-1.008,2.053-1.276,3.062-0.593c55.596,37.576,122.59,63.236,179.209,68.638l107.483,16.126
						c45.484,10.177,64.729,35.529,79.36,104.361l89.409,372.218c0.284,1.185-0.446,2.377-1.631,2.661
						C809.639,1982.457,809.464,1982.476,809.294,1982.476z"/>
				</g>
				<g>
					<g>
						<path style="fill:#FFFFFF;" d="M586.29,1449.676c-7.414,0.838-14.112-4.429-14.959-11.765l-14.466-125.239l26.85-3.036
							l14.466,125.239C599.028,1442.21,593.705,1448.837,586.29,1449.676z"/>
						<path d="M584.742,1451.969c-7.873,0-14.686-5.872-15.602-13.807l-14.467-125.236c-0.067-0.584,0.099-1.168,0.463-1.627
							c0.366-0.459,0.898-0.754,1.48-0.821l26.85-3.036c1.211-0.132,2.301,0.733,2.439,1.939l14.467,125.238
							c0.474,4.111-0.685,8.162-3.269,11.411c-2.614,3.288-6.365,5.361-10.565,5.835
							C585.936,1451.935,585.337,1451.969,584.742,1451.969z M559.31,1314.616l14.212,123.04c0.707,6.121,6.313,10.498,12.521,9.828
							c0-0.002,0-0.002,0-0.002c3.025-0.34,5.727-1.831,7.606-4.197c1.847-2.323,2.678-5.221,2.34-8.158l-14.214-123.051
							L559.31,1314.616z"/>
					</g>
					<g>
						<path style="fill:#FFFFFF;" d="M433.707,1412.655c-7.456,0.319-13.761-5.403-14.083-12.78l-5.498-125.937l27-1.154
							l5.498,125.937C446.945,1406.098,441.162,1412.336,433.707,1412.655z"/>
						<path d="M433.113,1414.874c-8.356,0-15.329-6.55-15.695-14.902l-5.497-125.938c-0.026-0.586,0.183-1.157,0.577-1.588
							c0.397-0.431,0.948-0.688,1.532-0.713l27.001-1.153c1.211-0.075,2.245,0.892,2.299,2.107l5.497,125.936
							c0.181,4.163-1.284,8.145-4.128,11.211c-2.838,3.062-6.708,4.846-10.898,5.025
							C433.57,1414.87,433.342,1414.874,433.113,1414.874z M416.427,1276.047l5.4,123.732c0.269,6.154,5.63,10.892,11.784,10.672
							c3.023-0.129,5.811-1.414,7.852-3.616c2.036-2.196,3.086-5.044,2.956-8.018l-5.4-123.734L416.427,1276.047z"/>
					</g>
					<g>
						<g>
							<path style="fill:#FFFFFF;" d="M546.376,1041.876l-101.145-41.23c-30.842-12.572-65.437,6.768-70.467,39.395l-31.43,203.848
								c-3.179,20.616,6.901,41.071,25.346,51.162c60.796,33.26,128.271,53.244,197.818,58.668l37.508,2.925
								c27.298,2.129,49.898-20.687,47.198-47.647l-14.749-147.262C631.112,1108.385,596.474,1062.297,546.376,1041.876z"/>
							<path d="M607.498,1358.985c-1.217,0-2.439-0.047-3.665-0.142l-37.507-2.924c-70.407-5.49-137.261-25.318-198.704-58.933
								c-19.144-10.472-29.78-31.943-26.468-53.432l31.431-203.848c2.482-16.111,12.101-29.994,26.389-38.087
								c14.488-8.209,31.655-9.308,47.091-3.017l101.146,41.23c50.965,20.776,86.005,67.401,91.441,121.682l14.749,147.261
								c1.342,13.398-3.314,26.628-12.775,36.298C631.87,1354.025,619.961,1358.985,607.498,1358.985z M425.589,998.98
								c-8.446,0-16.843,2.174-24.441,6.479c-13.105,7.423-21.928,20.151-24.204,34.919l-31.431,203.848
								c-3.03,19.659,6.705,39.306,24.223,48.89c60.894,33.312,127.151,52.963,196.933,58.403l37.507,2.924
								c12.443,0.974,24.598-3.566,33.292-12.454c8.543-8.733,12.749-20.679,11.538-32.773l-14.749-147.261
								c-5.273-52.65-39.267-97.879-88.718-118.037l-101.144-41.23C438.315,1000.208,431.937,998.98,425.589,998.98z"/>
						</g>
						<path d="M586.063,1332.256c-1.144,0-2.112-0.881-2.198-2.041l-11.685-155.117c-3.538-41.319-23.148-65.565-67.681-83.672
							l-77.892-31.42c-10.73-5.115-22.556-4.264-32.56,2.275c-1.015,0.668-2.387,0.381-3.053-0.64
							c-0.668-1.019-0.381-2.387,0.64-3.053c11.321-7.401,24.714-8.36,36.748-2.62l77.774,31.366
							c32.247,13.111,65.828,33.749,70.422,87.41l11.687,155.139c0.093,1.215-0.819,2.275-2.034,2.366
							C586.175,1332.254,586.119,1332.256,586.063,1332.256z"/>
					</g>
				</g>
			</g>
		</g>
		<g>
			<g>
				<path style="fill:#FFFFFF;" d="M960.338,367.726h-97.628c-4.054,0-7.941,1.619-10.796,4.497l-67.98,68.517
					c-2.826,2.849-4.412,6.699-4.412,10.712v97.699c0,4.057,1.621,7.946,4.503,10.802l67.905,67.3
					c2.848,2.823,6.696,4.407,10.706,4.407h97.778c4.013,0,7.863-1.586,10.711-4.412l67.833-67.296
					c2.878-2.856,4.497-6.742,4.497-10.797v-97.708c0-4.01-1.584-7.858-4.407-10.706l-67.908-68.512
					C968.283,369.347,964.394,367.726,960.338,367.726z"/>
				<path d="M960.412,633.866h-97.778c-4.622,0-8.974-1.793-12.258-5.046l-67.905-67.3c-3.277-3.245-5.156-7.753-5.156-12.368
					v-97.701c0-4.626,1.795-8.981,5.053-12.265l67.979-68.517c3.247-3.273,7.755-5.15,12.364-5.15h97.627
					c4.613,0,9.123,1.879,12.37,5.156l67.908,68.511c3.254,3.284,5.046,7.638,5.046,12.26v97.709c0,4.609-1.877,9.117-5.15,12.364
					l-67.834,67.296C969.393,632.073,965.036,633.866,960.412,633.866z M862.709,369.932c-3.493,0-6.77,1.366-9.231,3.844
					L785.5,442.293c-2.433,2.452-3.773,5.703-3.773,9.158v97.701c0,3.445,1.403,6.811,3.85,9.233l67.905,67.302
					c2.452,2.428,5.701,3.766,9.151,3.766h97.778c3.454,0,6.705-1.34,9.158-3.771l67.834-67.296c2.443-2.424,3.844-5.79,3.844-9.231
					v-97.709c0-3.452-1.338-6.701-3.766-9.153l-67.908-68.511c-2.426-2.448-5.792-3.851-9.237-3.851H862.709z"/>
			</g>
			<g>
				<path style="fill:#FFFFFF;" d="M860.795,392.715l-56.861,56.861c-2.791,2.791-4.359,6.577-4.359,10.525v80.414
					c0,3.948,1.568,7.733,4.359,10.525l56.861,56.861c2.791,2.791,6.577,4.359,10.525,4.359h80.413
					c3.948,0,7.733-1.568,10.525-4.359l56.861-56.861c2.791-2.791,4.359-6.577,4.359-10.525v-80.414
					c0-3.948-1.568-7.733-4.359-10.525l-56.861-56.861c-2.791-2.791-6.577-4.359-10.525-4.359H871.32
					C867.372,388.356,863.586,389.924,860.795,392.715z"/>
				<path d="M951.733,614.467h-80.413c-4.566,0-8.858-1.778-12.084-5.008l-56.863-56.86c-3.228-3.228-5.005-7.52-5.005-12.083V460.1
					c0-4.564,1.778-8.856,5.005-12.083l56.863-56.861c3.226-3.228,7.516-5.005,12.084-5.005h80.413
					c4.568,0,8.858,1.778,12.084,5.005l56.863,56.861c3.228,3.228,5.005,7.52,5.005,12.083v80.416c0,4.564-1.778,8.856-5.005,12.083
					l-56.863,56.86C960.591,612.689,956.299,614.467,951.733,614.467z M871.319,390.563c-3.387,0-6.572,1.319-8.964,3.712
					l-56.863,56.861c-2.394,2.394-3.713,5.578-3.713,8.964v80.416c0,3.385,1.319,6.57,3.713,8.964l56.863,56.86
					c2.394,2.396,5.576,3.715,8.964,3.715h80.413c3.387,0,6.57-1.319,8.964-3.715l56.863-56.86c2.394-2.394,3.712-5.578,3.712-8.964
					V460.1c0-3.385-1.319-6.57-3.712-8.964l-56.863-56.861c-2.392-2.394-5.576-3.712-8.964-3.712H871.319z M860.796,392.716h0.022
					H860.796z"/>
			</g>
			<g>
				<path d="M840.437,494.575c-3.418-1.284-5.982-1.912-8.041-2.416c-2.458-0.602-3.368-0.849-4.552-1.619
					c-0.743-0.483-1.124-1.653-1.106-2.509c0.017-0.841,0.81-2.46,2.862-3.226c2.828-1.055,5.505-1.299,14.273,5.211l8.861-11.93
					c-5.957-4.425-15.928-11.832-28.329-7.204c-7.336,2.737-12.369,9.503-12.524,16.834c-0.103,4.851,1.909,11.414,7.865,15.285
					c3.358,2.184,6.286,2.9,9.116,3.593c1.849,0.453,3.761,0.921,6.348,1.893c3.994,1.501,3.68,3.316,3.561,4
					c-0.268,1.547-2.473,3.836-6.356,3.836c-4.094,0-8.016-1.632-10.493-4.365l-11.012,9.979c5.325,5.876,13.163,9.247,21.505,9.247
					c10.545,0,19.377-6.796,20.999-16.16C854.953,506.142,849.859,498.116,840.437,494.575z"/>
				<path d="M859.18,484.784h12.626v45.909h14.861v-45.909h12.728v-14.861H859.18V484.784z"/>
				<path d="M986.935,510.699c0,0,4.92-0.004,5.353-0.004c11.381,0,20.64-9.145,20.64-20.386c0-11.241-9.259-20.386-20.64-20.386
					h-20.214v60.771h14.861V510.699z M992.288,484.783c3.132,0,5.779,2.53,5.779,5.525c0,2.995-2.647,5.525-5.779,5.525
					c-1.286,0-3.275,0.007-5.304,0.017c-0.01-2.132-0.022-8.831-0.028-11.067L992.288,484.783z"/>
				<path d="M932.603,469.923c-16.755,0-30.385,13.631-30.385,30.385c0,16.754,13.631,30.385,30.385,30.385
					c16.754,0,30.385-13.631,30.385-30.385C962.988,483.553,949.357,469.923,932.603,469.923z M932.603,515.832
					c-8.56,0-15.525-6.964-15.525-15.524c0-8.56,6.964-15.524,15.525-15.524c8.56,0,15.524,6.964,15.524,15.524
					C948.127,508.867,941.163,515.832,932.603,515.832z"/>
			</g>
		</g>
	</g>
</g>
</svg>
